<svg xmlns="http://www.w3.org/2000/svg" xmlns:xlink="http://www.w3.org/1999/xlink" version="1.1" id="Layer_3" x="0px" y="0px" viewBox="0 0 23 22.7" enable-background="new 0 0 23 22.7" xml:space="preserve">
<circle fill="#FF952A" cx="11.6" cy="11.4" r="10.9"/>
<g id="g8170">
	<g id="g8172">
		<path id="path8174" fill="#FFFFFF" d="M17.4,9.9c0.3-1.7-1.1-2.6-2.9-3.2l0.6-2.3L13.6,4L13,6.2    c-0.4-0.1-0.8-0.2-1.2-0.3l0.6-2.2l-1.5-0.3l-0.6,2.3C10,5.6,9.7,5.5,9.4,5.5l0,0L7.4,5L7,6.5c0,0,1.1,0.2,1.1,0.3    c0.6,0.1,0.7,0.5,0.7,0.8L8,10.2c0,0,0.1,0,0.2,0c0,0-0.1,0-0.2,0l-1,3.7C7,14,6.8,14.3,6.4,14.2c0,0-1.1-0.3-1.1-0.3l-0.7,1.6    L6.5,16c0.4,0.1,0.7,0.2,1,0.3L7,18.5l1.5,0.3L9,16.6c0.4,0.1,0.8,0.2,1.2,0.3l-0.6,2.3l1.5,0.3l0.6-2.3c2.5,0.5,4.4,0.3,5.2-1.9    c0.6-1.7,0-2.7-1.4-3.4C16.5,11.7,17.2,11.1,17.4,9.9L17.4,9.9z M14,14.3c-0.5,1.7-3.5,0.8-4.5,0.6l0.8-3.1    C11.3,12.1,14.5,12.5,14,14.3L14,14.3z M14.5,9.8c-0.4,1.6-3,0.8-3.8,0.6l0.7-2.8C12.3,7.8,14.9,8.2,14.5,9.8L14.5,9.8z"/>
	</g>
</g>
</svg>