<svg xmlns="http://www.w3.org/2000/svg" xmlns:xlink="http://www.w3.org/1999/xlink" version="1.1" id="Layer_1" x="0px" y="0px" viewBox="0 0 23 22.7" style="enable-background:new 0 0 23 22.7;" xml:space="preserve">
<style type="text/css">
	.st0{fill:#D33629;}
	.st1{fill:#FFFFFF;}
</style>
<g id="Layer_2_1_">
	<ellipse class="st0" cx="11.6" cy="11.4" rx="10.9" ry="10.9"/>
	<g id="_x23_ffffffff">
		<path class="st1" d="M4.4,7c1.1,0,2.3,0,3.4,0c0.8,0,1.5,0.4,1.9,1.2c0.3,0.6,0.3,1.3,0.3,2C9.8,11.2,9,11.8,8.2,12    c-1.5,0.3-3.2,0.3-4.6-0.1c0.2-0.1,0.4-0.1,0.6,0C4.8,12.1,5.3,12,5.9,12c0.8,0,1.7,0,2.3-0.6c0.9-0.9,1-2.7,0-3.5    C7.7,7.2,7,7.3,6.3,7.3c-0.1,1.4,0,2.8,0,4.3c-0.3,0-0.7,0-0.9,0c0-1.2,0-2.4,0-3.6c0-0.2-0.1-0.3-0.2-0.5c-0.3,0-0.5,0-0.9,0    C4.3,7.3,4.4,7.1,4.4,7z"/>
		<path class="st1" d="M9.8,7c0.5,0,1.1,0,1.6,0c0.1,0.2,0.2,0.4,0.3,0.6c0.1,0.1,0.1,0.3,0.2,0.3c0.4,0.9,0.8,1.9,1.2,2.8    c0.5,1.1,0.9,2.3,1.5,3.4c0.6-1.5,1.3-3.1,2-4.6c0.3-0.9,0.7-1.8,1.1-2.7c0.6,0,1.3,0,1.9,0c0,0.1,0,0.3,0,0.4c-0.3,0-0.4,0-0.6,0    c-0.1,0.1-0.2,0.2-0.3,0.3c0,2.6,0,5.1,0,7.6c0.2,0.4,0.6,0.3,0.9,0.3c0,0.2,0,0.3,0,0.5c-1,0-2,0-3,0c0-0.2,0-0.3,0-0.5    c0.3,0,0.5,0,0.8,0c0.1-0.1,0.2-0.2,0.3-0.3c0-2.1,0-4.3,0-6.4c-0.2,0.1-0.3,0.3-0.3,0.6c-0.9,2.1-2,4.4-2.9,6.5    c-0.1-0.1-0.1-0.2-0.2-0.3c-0.8-1.7-1.5-3.4-2.3-5.2C11.6,10,11.3,9.4,11,8.7h-0.2c0.1,0.6,0,1.3,0,1.9c0,1.3,0,2.7,0,4    c0,0.3,0.1,0.6,0.2,0.9c0.3,0.1,0.7,0.1,1,0.1c0,0.1,0,0.3,0,0.4c-1,0-2,0-3,0c0-0.1,0-0.3,0-0.4c0.3,0,0.8,0.1,1-0.2    c0.3-0.3,0.3-0.8,0.3-1.1c0.2-1.1,0.1-2.2,0.1-3.4c0-1.1,0-2.2,0-3.4c0-0.2-0.3-0.1-0.6-0.1C9.8,7.3,9.8,7.1,9.8,7z"/>
		<path class="st1" d="M5.2,12.6c0.3,0,0.7,0,0.9,0c0,0.9-0.1,1.8,0.1,2.8c0.3,0.3,0.7,0.2,1,0.3c0,0.1,0,0.3,0,0.4c-1,0-2,0-3,0    c0-0.1,0-0.3,0-0.4c0.3-0.1,0.9,0,0.9-0.5C5.3,14.3,5.2,13.4,5.2,12.6z"/>
	</g>
</g>
</svg>