<svg xmlns="http://www.w3.org/2000/svg" xmlns:xlink="http://www.w3.org/1999/xlink" version="1.1" id="Layer_4" x="0px" y="0px" viewBox="0 0 23 22.7" enable-background="new 0 0 23 22.7" xml:space="preserve">
<circle fill="#009ADC" cx="11.6" cy="11.4" r="10.9"/>
<path fill="#FFFFFF" d="M8.1,5.4c2.6,0.1,5.6-0.6,7.7,1.3c1.3,1.6,1.2,4,0.4,5.8c-1.1,2-3.6,2-5.6,1.9c0,1.4,0,2.8,0,4.1  c-0.9,0-1.7,0-2.6,0C8.1,14.2,8.1,9.8,8.1,5.4 M10.7,7.5c0,1.5,0,3.1,0,4.6c1-0.1,2.5,0.2,3-1c0.4-1.1,0.4-2.7-0.7-3.3  C12.3,7.5,11.4,7.6,10.7,7.5z"/>
</svg>